<?xml version="1.0" encoding="iso-8859-1"?>
<!-- Generator: Adobe Illustrator 16.0.0, SVG Export Plug-In . SVG Version: 6.00 Build 0)  -->
<!DOCTYPE svg PUBLIC "-//W3C//DTD SVG 1.1//EN" "http://www.w3.org/Graphics/SVG/1.1/DTD/svg11.dtd">
<svg version="1.1" id="Capa_1" xmlns="http://www.w3.org/2000/svg" xmlns:xlink="http://www.w3.org/1999/xlink" x="0px" y="0px"
	 width="100px" height="100px" viewBox="-100 -100 600 600" style="enable-background:new 0 0 401.207 401.207;"
	 xml:space="preserve">
	 <rect x="-100" y="-100" width="100%" height="100%" fill="#3DCFD3"/>
<g>
	<g>
		<path d="M328.898,0.001H72.308C32.435,0.001,0,32.435,0,72.308v256.589c0,39.873,32.435,72.309,72.308,72.309h256.59
			c39.873,0,72.309-32.436,72.309-72.309V72.308C401.207,32.435,368.771,0.001,328.898,0.001z M381.924,328.897
			c0,29.238-23.787,53.027-53.025,53.027H72.308c-29.238,0-53.025-23.789-53.025-53.027V72.308
			c0-29.238,23.787-53.025,53.025-53.025h256.59c29.238,0,53.025,23.787,53.025,53.025V328.897z"/>
		<path d="M111.022,55.48H63.989c-5.324,0-9.641,4.316-9.641,9.641v47.033c0,5.324,4.316,9.641,9.641,9.641h47.033
			c5.324,0,9.642-4.316,9.642-9.641V65.121C120.664,59.796,116.347,55.48,111.022,55.48z M101.382,102.513H73.631V74.761h27.751
			V102.513L101.382,102.513z"/>
		<path d="M139.386,121.794h47.033c5.324,0,9.641-4.316,9.641-9.641V65.12c0-5.324-4.316-9.641-9.641-9.641h-47.033
			c-5.324,0-9.642,4.316-9.642,9.641v47.033C129.744,117.478,134.061,121.794,139.386,121.794z M149.026,74.761h27.751v27.752
			h-27.751V74.761z"/>
		<path d="M261.816,55.48h-47.033c-5.324,0-9.643,4.316-9.643,9.641v47.033c0,5.324,4.318,9.641,9.643,9.641h47.033
			c5.324,0,9.641-4.316,9.641-9.641V65.121C271.457,59.796,267.141,55.48,261.816,55.48z M252.174,102.513h-27.75V74.761h27.75
			V102.513z"/>
		<path d="M337.211,55.48h-47.033c-5.324,0-9.643,4.316-9.643,9.641v47.033c0,5.324,4.316,9.641,9.643,9.641h47.033
			c5.322,0,9.643-4.316,9.643-9.641V65.121C346.854,59.796,342.535,55.48,337.211,55.48z M327.57,102.513h-27.75V74.761h27.75
			V102.513z"/>
		<path d="M111.022,279.417H63.989c-5.324,0-9.641,4.316-9.641,9.641v47.033c0,5.324,4.316,9.641,9.641,9.641h47.033
			c5.324,0,9.642-4.316,9.642-9.641v-47.033C120.664,283.733,116.347,279.417,111.022,279.417z M101.382,326.45H73.631v-27.752
			h27.751V326.45L101.382,326.45z"/>
		<path d="M186.419,279.417h-47.033c-5.324,0-9.642,4.316-9.642,9.641v47.033c0,5.324,4.317,9.641,9.642,9.641h47.033
			c5.324,0,9.641-4.316,9.641-9.641v-47.033C196.06,283.733,191.743,279.417,186.419,279.417z M176.777,326.45h-27.751v-27.752
			h27.751V326.45z"/>
		<path d="M261.816,279.417h-47.033c-5.324,0-9.643,4.316-9.643,9.641v47.033c0,5.324,4.318,9.641,9.643,9.641h47.033
			c5.324,0,9.641-4.316,9.641-9.641v-47.033C271.457,283.733,267.141,279.417,261.816,279.417z M252.174,326.45h-27.75v-27.752
			h27.75V326.45z"/>
		<path d="M337.211,279.417h-47.033c-5.324,0-9.643,4.316-9.643,9.641v47.033c0,5.324,4.316,9.641,9.643,9.641h47.033
			c5.322,0,9.643-4.316,9.643-9.641v-47.033C346.854,283.733,342.535,279.417,337.211,279.417z M327.57,326.45h-27.75v-27.752h27.75
			V326.45z"/>
		<path d="M163.634,160.505c-2.838,1.756-4.57,4.857-4.57,8.199v63.797c0,3.344,1.732,6.445,4.57,8.201
			c1.549,0.955,3.31,1.439,5.07,1.439c1.474,0,2.952-0.338,4.312-1.017l63.796-31.897c3.266-1.633,5.328-4.972,5.328-8.625
			c0-3.652-2.062-6.991-5.328-8.624l-63.796-31.898C170.027,158.593,166.482,158.75,163.634,160.505z M178.346,184.306
			l32.599,16.296l-32.599,16.299V184.306z"/>
	</g>
</g>
<g>
</g>
<g>
</g>
<g>
</g>
<g>
</g>
<g>
</g>
<g>
</g>
<g>
</g>
<g>
</g>
<g>
</g>
<g>
</g>
<g>
</g>
<g>
</g>
<g>
</g>
<g>
</g>
<g>
</g>
</svg>
